<svg xmlns="http://www.w3.org/2000/svg" width="8645" height="1377"><path d="M0 0h8645v1377H0z" id="svg-layer-0" style="pointer-events: all;"/><path d="M0 0h4322c-3.375 12.373-3.375 12.373-5.198 17.973l-.604 1.863q-.977 3.007-1.96 6.012l-1.402 4.315q-1.485 4.575-2.976 9.147c-2.362 7.252-4.716 14.506-7.071 21.76l-1.58 4.867a8506 8506 0 0 0-13.396 41.626 17504 17504 0 0 1-17.688 55.062l-5.11 15.828-.637 1.974q-6.765 20.97-13.503 41.948l-1.114 3.466-5.543 17.256q-6.171 19.206-12.346 38.41l-11.196 34.839-5.551 17.279-1.113 3.465a32642 32642 0 0 1-13.028 40.457l-.637 1.974-3.194 9.895a23230 23230 0 0 0-19.403 60.334l-.964 3.014a47062 47062 0 0 0-10.153 31.788q-2.243 7.03-4.488 14.057l-3.183 9.984-1.927 6.032-.89 2.801-.817 2.55-.708 2.222C4154 524 4154 524 4153 526l-546 1c10.797 7.956 21.593 15.884 32.473 23.723 7.084 5.117 14.107 10.317 21.136 15.51q5.942 4.389 11.891 8.767 7.147 5.262 14.285 10.535c7.771 5.74 15.56 11.45 23.403 17.09a1018 1018 0 0 1 18.78 13.86c5.649 4.252 11.373 8.393 17.112 12.521 7.89 5.68 15.71 11.45 23.529 17.228q5.942 4.388 11.891 8.766 7.147 5.262 14.285 10.535c7.71 5.695 15.437 11.364 23.215 16.965 8.584 6.181 17.102 12.448 25.609 18.734q5.942 4.388 11.891 8.766l7.125 5.25 9.5 7 4.748 3.498q5.96 4.389 11.912 8.787c7.71 5.695 15.437 11.364 23.215 16.965 8.584 6.181 17.102 12.448 25.609 18.734q5.942 4.388 11.891 8.766l7.125 5.25 9.5 7 4.748 3.498q5.96 4.389 11.912 8.787c7.71 5.695 15.437 11.364 23.215 16.965a2124 2124 0 0 1 23.61 17.258 568 568 0 0 0 8.218 5.984l1.712 1.237a774 774 0 0 0 4.405 3.154c2.314 2.102 2.65 2.84 3.055 5.867-.455 2.233-.455 2.233-1.285 4.71l-.938 2.853-1.054 3.101-1.082 3.267q-1.164 3.507-2.341 7.01c-1.896 5.643-3.763 11.295-5.633 16.946q-.965 2.91-1.933 5.822c-3.959 11.923-7.799 23.882-11.609 35.854l-3.93 12.316-1.008 3.16c-4.152 12.997-8.349 25.98-12.542 38.964A19133 19133 0 0 0 3986 1046a19263 19263 0 0 1-19.154 59.588l-.64 1.98-3.19 9.885a33495.489 33495.489 0 0 0-14.14 43.922l-1.115 3.466-5.543 17.256q-5.044 15.698-10.091 31.397L3926.5 1231l-2.25 7-1.125 3.5-3.375 10.5-1.125 3.5-18.307 56.947-4.892 15.209-2.311 7.184-3.224 10.023-1.016 3.156a1859 1859 0 0 0-5.53 17.467 1467 1467 0 0 0-1.544 4.98c-1.691 5.424-1.691 5.424-2.801 6.534a64 64 0 0 1-4.31.125l-2.846.007-3.173-.007-3.355.004q-5.657.003-11.312-.005-4.084 0-8.167.004-8.964.004-17.928 0-13.458-.006-26.916-.002-23.036.005-46.07-.001-23.492-.006-46.983-.004h-3.002l-15.175.001q-55.51.004-111.021-.003-56.294-.006-112.586-.006h-3.582l-113.99.001h-3.773a2835275 2835275 0 0 1-253.27-.013 3610699 3610699 0 0 0-272.626-.007l-183.06-.003h-4.21q-135.003-.003-270.004-.009h-4.355l-276.512-.013h-4.412a16947314 16947314 0 0 0-593.928-.018h-4.341l-376.966-.009-517-.017h-10.17L0 1377zM6126 0h2519v1377H6569c-4.5-11.25-4.5-11.25-6.036-16.033l-1.058-3.276-1.11-3.472-1.195-3.713a6590 6590 0 0 1-3.188-9.938q-1.684-5.251-3.374-10.502-4.026-12.53-8.039-25.066l-1.125-3.512q-4.401-13.745-8.794-27.494a18136 18136 0 0 0-16.727-51.995 17623 17623 0 0 1-17.292-53.812 16465 16465 0 0 0-18.562-57.687 17287 17287 0 0 1-19.516-60.673c-5.628-17.62-11.3-35.225-16.984-52.827a16535 16535 0 0 1-19.885-61.915 4560 4560 0 0 0-10.876-33.653q-2.114-6.466-4.22-12.935-2.06-6.314-4.143-12.621-.978-2.97-1.944-5.942-1.19-3.656-2.404-7.304l-1.06-3.278-.937-2.854c-.56-2.633-.497-4.01.469-6.498 1.452-1.489 1.452-1.489 3.324-2.883l2.095-1.582 2.269-1.66 2.338-1.748a789 789 0 0 1 15.533-11.255c4.92-3.482 9.78-7.042 14.628-10.622l2.431-1.794L6451 813c10.04-7.422 20.1-14.812 30.233-22.108 7.836-5.65 15.607-11.385 23.376-17.126q5.942-4.388 11.891-8.766l4.75-3.5 9.5-7 2.375-1.75 4.748-3.498q5.96-4.389 11.912-8.787a2613 2613 0 0 1 25.448-18.573c7.836-5.65 15.607-11.385 23.376-17.126 4.751-3.51 9.508-7.01 14.264-10.514q5.959-4.389 11.912-8.787a2613 2613 0 0 1 25.448-18.573c7.836-5.65 15.607-11.385 23.376-17.126q5.942-4.388 11.891-8.766l4.75-3.5 9.5-7 2.375-1.75 4.748-3.498q5.96-4.389 11.912-8.787a2613 2613 0 0 1 25.448-18.573c7.836-5.65 15.607-11.385 23.376-17.126q5.942-4.388 11.891-8.766l4.75-3.5 9.5-7 7.114-5.241a8696 8696 0 0 0 14.542-10.732q2.289-1.69 4.574-3.382c6.951-5.132 13.986-10.12 21.02-15.145l-546-1c-7.063-21.19-14.12-42.371-20.964-63.631l-3.335-10.346a20911 20911 0 0 1-18.673-58.188c-5.31-16.622-10.666-33.23-16.028-49.835a19730 19730 0 0 1-18.959-59.002 18663 18663 0 0 0-17.687-55 17623 17623 0 0 1-17.292-53.81 17013 17013 0 0 0-19.24-59.783 17330 17330 0 0 1-20.392-63.436 5221 5221 0 0 0-8.86-27.535l-.804-2.474q-1.829-5.625-3.67-11.245l-1.252-3.84-1.088-3.32C6126 2 6126 2 6126 0" id="svg-layer-1" style="pointer-events: all;"/><path d="M2520 0h1802c-3.375 12.373-3.375 12.373-5.198 17.973l-.604 1.863q-.977 3.007-1.96 6.012l-1.402 4.315q-1.485 4.575-2.976 9.147c-2.362 7.252-4.716 14.506-7.071 21.76l-1.58 4.867a8506 8506 0 0 0-13.396 41.626 17504 17504 0 0 1-17.688 55.062l-5.11 15.828-.637 1.974q-6.765 20.97-13.503 41.948l-1.114 3.466-5.543 17.256q-6.171 19.206-12.346 38.41l-3.38 10.516-1.126 3.504a123078 123078 0 0 0-12.241 38.098l-1.113 3.465a32642 32642 0 0 1-13.028 40.457l-.637 1.974-3.194 9.895a23230 23230 0 0 0-19.403 60.334l-.964 3.014a47062 47062 0 0 0-10.153 31.788q-2.243 7.03-4.488 14.057l-3.183 9.984-1.927 6.032-.89 2.801-.817 2.55-.708 2.222C4154 524 4154 524 4153 526l-546 1c10.797 7.956 21.593 15.884 32.473 23.723 7.084 5.117 14.107 10.317 21.136 15.51q5.942 4.389 11.891 8.767 7.147 5.262 14.285 10.535c7.771 5.74 15.56 11.45 23.403 17.09a1018 1018 0 0 1 18.78 13.86c5.649 4.252 11.373 8.393 17.112 12.521 7.89 5.68 15.71 11.45 23.529 17.228q5.942 4.388 11.891 8.766 7.147 5.262 14.285 10.535c7.71 5.695 15.437 11.364 23.215 16.965 8.584 6.181 17.102 12.448 25.609 18.734q5.942 4.388 11.891 8.766l7.125 5.25 9.5 7 4.748 3.498q5.96 4.389 11.912 8.787c7.71 5.695 15.437 11.364 23.215 16.965 8.584 6.181 17.102 12.448 25.609 18.734q5.942 4.388 11.891 8.766l7.125 5.25 9.5 7 4.748 3.498q5.96 4.389 11.912 8.787c7.71 5.695 15.437 11.364 23.215 16.965a2124 2124 0 0 1 23.61 17.258 568 568 0 0 0 8.218 5.984l1.712 1.237a774 774 0 0 0 4.405 3.154c2.314 2.102 2.65 2.84 3.055 5.867-.455 2.233-.455 2.233-1.285 4.71l-.938 2.853-1.054 3.101-1.082 3.267q-1.164 3.507-2.341 7.01c-1.896 5.643-3.763 11.295-5.633 16.946q-.965 2.91-1.933 5.822c-3.959 11.923-7.799 23.882-11.609 35.854l-3.93 12.316-1.008 3.16c-4.152 12.997-8.349 25.98-12.542 38.964A19133 19133 0 0 0 3986 1046a19263 19263 0 0 1-19.154 59.588l-.64 1.98-3.19 9.885a33495.489 33495.489 0 0 0-14.14 43.922l-1.115 3.466-5.543 17.256q-5.044 15.698-10.091 31.397L3926.5 1231l-2.25 7-1.125 3.5-3.375 10.5-1.125 3.5-18.307 56.947-4.892 15.209-2.311 7.184-3.224 10.023-1.016 3.156a1859 1859 0 0 0-5.53 17.467 1467 1467 0 0 0-1.544 4.98c-1.691 5.424-1.691 5.424-2.801 6.534a122 122 0 0 1-5.998.124l-3.985.007-4.446-.008q-2.344 0-4.69.004-6.504.004-13.008-.005c-4.702-.003-9.404 0-14.106 0q-12.381.004-24.762-.003-18.411-.008-36.821-.005-30.964.001-61.93-.008-30.673-.01-61.348-.011h-3.848l-19.345-.001a852341 852341 0 0 1-170.404-.025h-2.084a930619 930619 0 0 0-143.295-.018l-83.987-.009h-3.9q-129.022-.016-258.043-.042-.968-2.407-1.935-4.816l-1.088-2.708a125 125 0 0 1-2.798-7.863l-.917-2.855-.957-3.016c-.345-1.075-.69-2.15-1.044-3.259q-1.698-5.303-3.386-10.608l-2.41-7.533q-2.187-6.83-4.37-13.66c-3.61-11.3-7.239-22.594-10.87-33.887l-3.327-10.349a30875 30875 0 0 0-11.914-36.993l-.637-1.973-3.193-9.892c-.21-.654-.422-1.308-.64-1.981l-1.28-3.965a19553 19553 0 0 1-18.194-56.646A18016 18016 0 0 0 2877 1112a19748 19748 0 0 1-18.959-59.002A18021 18021 0 0 0 2841 1000a18946 18946 0 0 1-19.889-61.919 7614 7614 0 0 0-10.811-33.588q-1.05-3.232-2.096-6.466l-.695-2.146-1.387-4.28a8226 8226 0 0 0-4.082-12.56q-.963-2.96-1.921-5.92-1.177-3.634-2.365-7.265l-1.058-3.277-.924-2.84c-.817-2.897-1.33-5.764-1.772-8.739 6.709-5.58 13.686-10.715 20.771-15.8a1539 1539 0 0 0 16.666-12.138l2.383-1.758q3.59-2.65 7.18-5.304c9.364-6.92 18.735-13.826 28.188-20.625A910 910 0 0 0 2886 783c6.3-4.754 12.673-9.398 19.08-14.006 7.89-5.68 15.71-11.45 23.529-17.228q5.942-4.388 11.891-8.766l4.75-3.5 9.5-7 2.375-1.75 4.748-3.498q5.96-4.389 11.912-8.787a2613 2613 0 0 1 25.448-18.573c7.836-5.65 15.607-11.385 23.376-17.126 4.751-3.51 9.508-7.01 14.264-10.514q5.959-4.389 11.912-8.787a2613 2613 0 0 1 25.448-18.573c7.836-5.65 15.607-11.385 23.376-17.126q5.942-4.388 11.891-8.766l4.75-3.5 9.5-7 2.375-1.75 4.748-3.498q5.96-4.389 11.912-8.787a2613 2613 0 0 1 25.448-18.573c7.836-5.65 15.607-11.385 23.376-17.126q5.942-4.388 11.891-8.766 7.41-5.457 14.813-10.922l2.63-1.941q2.503-1.846 5.004-3.696l2.272-1.675 1.998-1.476c1.568-1.134 3.173-2.217 4.783-3.29l-546-1c-13.708-41.125-13.708-41.125-19.454-59.101-1.894-5.926-3.795-11.85-5.694-17.774l-1.196-3.731q-4.333-13.515-8.695-27.019l-.635-1.966-3.178-9.841a20795 20795 0 0 1-20.108-62.572A18016 18016 0 0 0 2613 291a18785 18785 0 0 1-18-56 19263 19263 0 0 0-19.154-59.588l-.64-1.98-3.19-9.885c-.21-.652-.42-1.303-.638-1.974-6.36-19.705-12.69-39.418-19.023-59.132a34617 34617 0 0 0-8.093-25.156c-13.482-41.868-13.482-41.868-19.887-62.222l-.706-2.239a4069 4069 0 0 1-1.896-6.039l-1.049-3.347C2520 1 2520 1 2520 0" id="svg-layer-2" style="pointer-events: all;"/><path fill="#F9CC09" d="M7928 0h717v1377H7485c10.325-33.27 10.325-33.27 13.91-44.293l1.242-3.834q1.291-3.989 2.585-7.976 3.114-9.6 6.219-19.2l1.399-4.325c4.265-13.177 8.495-26.365 12.708-39.56a18744 18744 0 0 1 18.583-57.814c5.79-17.928 11.56-35.863 17.292-53.81 6.37-19.946 12.8-39.873 19.244-59.795a16721 16721 0 0 0 18.834-58.566c5.415-16.954 10.87-33.894 16.34-50.83a20880 20880 0 0 0 23.848-74.253q2.851-8.93 5.74-17.848 1.874-5.797 3.736-11.596.874-2.711 1.757-5.419 1.2-3.685 2.38-7.377l.723-2.19c1.574-4.972 1.574-4.972.46-8.314-1.572-1.42-1.572-1.42-3.621-2.898l-2.307-1.682-2.51-1.795-2.591-1.88c-2.652-1.923-5.31-3.835-7.971-5.745l-4.598-3.32q-3.313-2.396-6.63-4.785c-7.839-5.65-15.61-11.387-23.38-17.129q-5.944-4.388-11.892-8.766-7.147-5.262-14.285-10.535c-7.771-5.74-15.56-11.45-23.403-17.09a1018 1018 0 0 1-18.78-13.86c-5.649-4.252-11.373-8.393-17.112-12.521-7.89-5.68-15.71-11.45-23.529-17.228q-5.942-4.388-11.891-8.766l-4.75-3.5-2.375-1.75-9.5-7-4.748-3.498q-5.96-4.389-11.912-8.787c-7.71-5.695-15.437-11.364-23.215-16.965-8.584-6.181-17.102-12.448-25.609-18.734q-5.942-4.388-11.891-8.766-7.147-5.262-14.285-10.535c-7.71-5.695-15.437-11.364-23.215-16.965-8.584-6.181-17.102-12.448-25.609-18.734q-5.942-4.388-11.891-8.766l-4.75-3.5-2.375-1.75-9.5-7-4.748-3.498q-5.96-4.389-11.912-8.787c-7.71-5.695-15.437-11.364-23.215-16.965a2398 2398 0 0 1-25.857-18.914q-3-2.22-6.006-4.434-1.663-1.231-3.324-2.465l-2.856-2.113L7212 527v-1h547l3-11a741 741 0 0 1 3.09-9.832l.897-2.802q1.473-4.59 2.95-9.178l2.116-6.592c6.27-19.534 12.575-39.057 18.88-58.58q8.041-24.901 16.005-49.829c6.37-19.945 12.8-39.872 19.244-59.794 5.989-18.518 11.96-37.041 17.88-55.58 5.906-18.49 11.85-36.967 17.813-55.438l5.11-15.828.637-1.974q6.765-20.97 13.503-41.948l1.114-3.466 5.543-17.256 6.71-20.88 1.129-3.51q2.797-8.705 5.597-17.409 5.278-16.415 10.542-32.835 2.487-7.765 4.979-15.529l2.373-7.41q1.643-5.134 3.29-10.267l.973-3.048.918-2.855.784-2.449c1.225-3.6 2.588-7.15 3.923-10.711M0 0h717c3.376 9.002 3.376 9.002 4.647 12.888l.876 2.67.926 2.84.998 3.048q1.622 4.964 3.24 9.929l1.14 3.489a8774 8774 0 0 1 17.94 55.634c5.163 16.18 10.369 32.345 15.589 48.507a20119 20119 0 0 1 19.603 60.997c5.861 18.344 11.77 36.673 17.687 55a17623 17623 0 0 1 17.292 53.81A16465 16465 0 0 0 835.5 366.5a17015 17015 0 0 1 19.504 60.636 12753 12753 0 0 0 12.976 40.406 39366 39366 0 0 0 8.622 26.684l2.304 7.125c1.81 5.606 3.6 11.218 5.357 16.841l1.01 3.229C886 524 886 524 886 526h547c-5.621 5.621-5.621 5.621-8.758 7.84l-2.115 1.51-2.252 1.587q-2.43 1.734-4.855 3.47l-2.518 1.796c-4.005 2.877-7.973 5.804-11.94 8.735l-2.383 1.759-4.788 3.537c-4.751 3.51-9.508 7.01-14.264 10.514q-5.959 4.389-11.912 8.787c-7.771 5.74-15.56 11.45-23.402 17.09A910 910 0 0 0 1327 605c-6.3 4.754-12.673 9.398-19.08 14.006-7.89 5.68-15.71 11.45-23.529 17.228-4.751 3.51-9.508 7.01-14.264 10.514q-5.959 4.389-11.912 8.787a2613 2613 0 0 1-25.448 18.573c-7.836 5.65-15.607 11.385-23.376 17.126q-5.942 4.388-11.891 8.766l-4.75 3.5-9.5 7-2.375 1.75-4.748 3.498q-5.96 4.389-11.912 8.787a2613 2613 0 0 1-25.448 18.573c-7.836 5.65-15.607 11.385-23.376 17.126q-5.942 4.388-11.891 8.766l-4.75 3.5-9.5 7-2.375 1.75-4.748 3.498q-5.96 4.389-11.912 8.787a2613 2613 0 0 1-25.448 18.573c-7.82 5.638-15.575 11.362-23.328 17.09a6122 6122 0 0 1-7.58 5.587l-2.56 1.885q-2.403 1.77-4.807 3.537c-4.85 3.572-9.678 7.172-14.492 10.793 2.17 9.366 4.985 18.474 7.98 27.602l1.47 4.512q1.555 4.778 3.117 9.554c2.472 7.559 4.931 15.122 7.392 22.684q1.232 3.787 2.466 7.573a6751 6751 0 0 1 12.763 39.638 14741 14741 0 0 0 18.312 56.937 17239 17239 0 0 1 19.516 60.673c5.628 17.62 11.3 35.225 16.984 52.827a19730 19730 0 0 1 18.959 59.002c5.435 17.01 10.909 34.007 16.396 51a24545 24545 0 0 1 23.675 73.709q3.752 11.734 7.517 23.465l3.363 10.488 2.17 6.758 2.983 9.3.906 2.818.816 2.55.715 2.228c.5 1.682.5 1.682.5 2.682H0zM4322 0c2 1 2 1 3.378 4.72q.818 2.564 1.614 5.135l.902 2.846q.98 3.096 1.95 6.195c1.411 4.506 2.84 9.008 4.266 13.51q1.148 3.622 2.293 7.246c4.053 12.822 8.186 25.617 12.324 38.411q3.202 9.905 6.398 19.812l.633 1.96c4.102 12.715 8.176 25.438 12.242 38.165a19263 19263 0 0 0 19.154 59.588l.64 1.98 3.828 11.86a33496 33496 0 0 1 14.617 45.413l5.543 17.256q5.044 15.698 10.091 31.397L4427.5 323l2.25 7 23.625 73.5 18.307 56.947 4.892 15.209 2.311 7.184q3.096 9.616 6.178 19.236.935 2.92 1.874 5.84a4482 4482 0 0 1 2.579 8.064l.771 2.398C4492 523.77 4492 523.77 4492 526h547c-5.621 5.621-5.621 5.621-8.758 7.84l-2.115 1.51-2.252 1.587q-2.43 1.734-4.855 3.47l-2.518 1.796c-4.005 2.877-7.973 5.804-11.94 8.735l-2.383 1.759-4.788 3.537c-4.751 3.51-9.508 7.01-14.264 10.514q-5.959 4.389-11.912 8.787a2613 2613 0 0 1-25.448 18.573c-7.836 5.65-15.607 11.385-23.376 17.126q-5.942 4.388-11.891 8.766l-4.75 3.5-9.5 7-2.375 1.75-4.748 3.498q-5.96 4.389-11.912 8.787a2613 2613 0 0 1-25.448 18.573c-7.836 5.65-15.607 11.385-23.376 17.126q-5.942 4.388-11.891 8.766l-4.75 3.5-9.5 7-2.375 1.75-4.748 3.498q-5.96 4.389-11.912 8.787a2613 2613 0 0 1-25.448 18.573c-7.836 5.65-15.607 11.385-23.376 17.126-4.751 3.51-9.508 7.01-14.264 10.514q-5.959 4.389-11.912 8.787a2613 2613 0 0 1-25.448 18.573c-7.836 5.65-15.607 11.385-23.376 17.126q-5.942 4.388-11.891 8.766l-4.75 3.5-11.879 8.753-4.713 3.473q-6.217 4.581-12.435 9.16l-2.618 1.928q-2.482 1.83-4.964 3.657l-2.262 1.666-1.982 1.46A984 984 0 0 0 4598 851c1.63 8.316 4.245 16.27 6.883 24.309l1.473 4.525q1.564 4.805 3.136 9.607a11098 11098 0 0 1 4.943 15.158l.83 2.55 4.134 12.698a6705 6705 0 0 1 12.788 39.716 14728 14728 0 0 0 18.313 56.937 17239 17239 0 0 1 19.516 60.673c5.628 17.62 11.3 35.225 16.984 52.827a19730 19730 0 0 1 18.959 59.002A18071 18071 0 0 0 4723 1242a21301 21301 0 0 1 22.012 68.531l.959 3.001c2.591 8.107 5.194 16.21 7.799 24.312l2.391 7.443 3.49 10.852q1.599 4.963 3.193 9.927l.972 3.016a3197469353378.219 3197469353378.219 0 0 1 1.646 5.122C4766 1376 4766 1376 4766 1377h-887c10.324-33.266 10.324-33.266 14.129-44.95l1.309-4.035 2.727-8.4q3.639-11.206 7.269-22.416l.731-2.257a9691 9691 0 0 0 12.96-40.317A17624 17624 0 0 1 3936 1199a18217 18217 0 0 0 17.938-55.812c6.37-19.946 12.8-39.873 19.244-59.795a16721 16721 0 0 0 18.834-58.566 18069 18069 0 0 1 17.626-54.816c6.637-20.55 13.25-41.108 19.805-61.683 3.035-9.517 6.1-19.022 9.244-28.504l1.73-5.242q1.592-4.817 3.216-9.623l1.398-4.232 1.23-3.67c1.042-4.337 1.042-4.337-.265-7.057-1.572-1.533-1.572-1.533-3.621-2.996l-2.307-1.672-2.51-1.77-2.591-1.867a1295 1295 0 0 0-5.353-3.831c-3.153-2.245-6.29-4.51-9.425-6.778a3139 3139 0 0 0-4.422-3.191c-7.838-5.649-15.61-11.387-23.38-17.129q-5.942-4.388-11.891-8.766l-4.75-3.5-2.375-1.75-9.5-7-4.748-3.498q-5.96-4.389-11.912-8.787c-7.71-5.695-15.437-11.364-23.215-16.965-8.584-6.181-17.102-12.448-25.609-18.734q-5.942-4.388-11.891-8.766l-4.75-3.5-2.375-1.75-9.5-7-4.748-3.498q-5.96-4.389-11.912-8.787c-7.71-5.695-15.437-11.364-23.215-16.965-8.584-6.181-17.102-12.448-25.609-18.734q-5.942-4.388-11.891-8.766-7.147-5.262-14.285-10.535c-7.71-5.695-15.437-11.364-23.215-16.965-8.584-6.181-17.102-12.448-25.609-18.734q-5.942-4.388-11.891-8.766l-4.75-3.5-2.375-1.75-9.5-7-4.748-3.498q-5.96-4.389-11.912-8.787c-7.71-5.695-15.437-11.364-23.215-16.965-8.567-6.17-17.07-12.424-25.56-18.699a6122 6122 0 0 0-7.58-5.586l-2.561-1.885q-2.403-1.77-4.807-3.537-2.18-1.605-4.357-3.215-2.227-1.645-4.462-3.281l-2.224-1.64-2.009-1.475L3606 527v-1h547l3-11a281 281 0 0 1 1.707-5.5l.918-2.855.973-3 1.048-3.256q1.706-5.288 3.417-10.577l2.42-7.505 4.392-13.62c3.681-11.406 7.348-22.818 11.015-34.23l5.618-17.48a131960 131960 0 0 0 13.367-41.602l1.113-3.465a32667 32667 0 0 1 16.858-52.322c.21-.654.422-1.308.64-1.981l1.28-3.965c5.769-17.873 11.518-35.752 17.234-53.642a19307 19307 0 0 1 19.154-59.588l.64-1.98 3.19-9.885a33495.489 33495.489 0 0 0 14.14-43.922l1.115-3.466 5.543-17.256 6.71-20.88 1.129-3.511 5.594-17.401q5.293-16.457 10.57-32.92l4.397-13.71q1.505-4.688 3.005-9.377 1.655-5.168 3.313-10.334l.989-3.095.917-2.855.791-2.47c.85-2.488 1.807-4.917 2.803-7.35M2519 0c2 1 2 1 3.378 4.72q.818 2.564 1.614 5.135l.902 2.846q.98 3.096 1.95 6.195c1.411 4.506 2.84 9.008 4.266 13.51q1.148 3.622 2.293 7.246c4.053 12.821 8.186 25.616 12.324 38.41q3.205 9.912 6.402 19.825l.633 1.961c4.08 12.648 8.132 25.305 12.175 37.965A16465 16465 0 0 0 2583.5 195.5a17287 17287 0 0 1 19.516 60.673c5.628 17.62 11.3 35.225 16.984 52.827a18233 18233 0 0 1 17.938 55.813A16501 16501 0 0 0 2656.5 422.5a19752 19752 0 0 1 19.438 60.375l.973 3.043q2.634 8.232 5.256 16.469 1.298 4.068 2.603 8.134l1.671 5.237.786 2.438C2689 523.773 2689 523.773 2689 526h547c-5.621 5.621-5.621 5.621-8.758 7.84l-2.115 1.51-2.252 1.587q-2.43 1.734-4.855 3.47l-2.518 1.796c-4.005 2.877-7.973 5.804-11.94 8.735l-2.383 1.759-4.788 3.537c-4.751 3.51-9.508 7.01-14.264 10.514q-5.959 4.389-11.912 8.787a2613 2613 0 0 1-25.448 18.573c-7.836 5.65-15.607 11.385-23.376 17.126q-5.942 4.388-11.891 8.766l-4.75 3.5-9.5 7-2.375 1.75-4.748 3.498q-5.96 4.389-11.912 8.787a2613 2613 0 0 1-25.448 18.573c-7.836 5.65-15.607 11.385-23.376 17.126q-5.942 4.388-11.891 8.766l-4.75 3.5-9.5 7-2.375 1.75-4.748 3.498q-5.96 4.389-11.912 8.787a2613 2613 0 0 1-25.448 18.573c-7.836 5.65-15.607 11.385-23.376 17.126q-5.942 4.388-11.891 8.766l-4.75 3.5-9.5 7-2.375 1.75-4.748 3.498q-5.96 4.389-11.912 8.787a2613 2613 0 0 1-25.448 18.573c-7.836 5.65-15.607 11.385-23.376 17.126-3.96 2.926-7.926 5.845-11.891 8.766l-4.691 3.457a49864 49864 0 0 1-17.668 13.014l-2.262 1.666-1.982 1.46c-1.972 1.459-3.935 2.93-5.897 4.403 2.17 9.366 4.985 18.474 7.98 27.602l1.47 4.513q1.555 4.778 3.117 9.553a11168 11168 0 0 1 5.74 17.61l4.113 12.633a6868 6868 0 0 1 12.83 39.839c5.88 18.429 11.805 36.842 17.75 55.25a19676 19676 0 0 1 18.959 59.002A18021 18021 0 0 0 2884 1130a18785 18785 0 0 1 18 56 19319 19319 0 0 0 17.875 55.625l5.098 15.793.636 1.97a35709 35709 0 0 1 32.012 99.66q1.367 4.27 2.73 8.542l.821 2.56c1.828 5.735 1.828 5.735 1.828 6.85h-887c6.426-20.447 12.859-40.883 19.46-61.272q3.25-10.043 6.493-20.087l.658-2.035c4.134-12.798 8.236-25.607 12.327-38.418 6.37-19.947 12.8-39.873 19.244-59.795a16721 16721 0 0 0 18.834-58.566c5.842-18.288 11.73-36.56 17.63-54.829 5.79-17.928 11.56-35.863 17.291-53.81 6.37-19.942 12.798-39.865 19.24-59.783a15040 15040 0 0 0 20.391-63.44c2.923-9.169 5.869-18.327 8.897-27.461l1.597-4.842q1.45-4.39 2.93-8.771.632-1.91 1.262-3.82l1.104-3.29c.657-2.847.859-4.148-.358-6.781-1.572-1.533-1.572-1.533-3.621-2.996l-2.307-1.672-2.51-1.77-2.591-1.867a1295 1295 0 0 0-5.353-3.831c-3.153-2.245-6.29-4.51-9.425-6.778a3139 3139 0 0 0-4.422-3.191c-7.838-5.649-15.61-11.387-23.38-17.129q-5.942-4.388-11.891-8.766l-4.75-3.5-2.375-1.75-9.5-7-4.748-3.498q-5.96-4.389-11.912-8.787c-7.771-5.74-15.56-11.45-23.403-17.09a1018 1018 0 0 1-18.78-13.86c-5.649-4.252-11.373-8.393-17.112-12.521-7.89-5.68-15.71-11.45-23.529-17.228q-5.942-4.388-11.891-8.766l-4.75-3.5-2.375-1.75-9.5-7-4.748-3.498q-5.96-4.389-11.912-8.787c-7.71-5.695-15.437-11.364-23.215-16.965-8.584-6.181-17.102-12.448-25.609-18.734q-5.942-4.388-11.891-8.766-7.147-5.262-14.285-10.535c-7.71-5.695-15.437-11.364-23.215-16.965-8.584-6.181-17.102-12.448-25.609-18.734q-5.942-4.388-11.891-8.766l-4.75-3.5-2.375-1.75-9.5-7-4.748-3.498q-5.96-4.389-11.912-8.787a2414 2414 0 0 0-23.652-17.278c-5.251-3.783-10.494-7.575-15.688-11.437l-2.883-2.14L1803 527v-1h547l3-11a281 281 0 0 1 1.707-5.5l.918-2.855.973-3 1.048-3.256q1.707-5.288 3.416-10.577l2.42-7.505 4.393-13.62c3.681-11.406 7.348-22.818 11.015-34.23l5.618-17.48a131960 131960 0 0 0 13.367-41.602l1.113-3.465q6.501-20.232 13.028-40.457l.636-1.973 5.114-15.84q9.107-28.206 18.126-56.441c6.054-18.95 12.168-37.879 18.29-56.806a16721 16721 0 0 0 18.834-58.566 18204 18204 0 0 1 18.258-56.771c4.502-13.937 8.996-27.877 13.449-41.83l1.125-3.524q2.613-8.186 5.216-16.374l1.846-5.789.821-2.592A275 275 0 0 1 2519 0M6125 0c2.164 2.164 2.605 3.345 3.534 6.207l.876 2.672.942 2.934 1.001 3.073q1.643 5.055 3.272 10.114l2.311 7.12c5.66 17.447 11.258 34.915 16.835 52.39a14921 14921 0 0 0 15.465 48.136l6.386 19.781a33490 33490 0 0 1 14.617 45.414l5.543 17.256q5.044 15.699 10.091 31.397L6211.5 264l2.25 7 41.625 129.5 18.281 56.87 4.863 15.12 2.29 7.124q3.105 9.648 6.2 19.299 1.528 4.759 3.064 9.516l1.947 6.063.914 2.828.827 2.582.728 2.262C6295 524 6295 524 6295 526h547c-5.621 5.621-5.621 5.621-8.758 7.84l-2.115 1.51-2.252 1.587q-2.43 1.734-4.855 3.47l-2.518 1.796c-4.005 2.877-7.973 5.804-11.94 8.735l-2.383 1.759-4.788 3.537c-4.751 3.51-9.508 7.01-14.264 10.514q-5.959 4.389-11.912 8.787a2613 2613 0 0 1-25.448 18.573c-7.836 5.65-15.607 11.385-23.376 17.126q-5.942 4.388-11.891 8.766l-4.75 3.5-9.5 7-2.375 1.75-4.748 3.498q-5.96 4.389-11.912 8.787a2613 2613 0 0 1-25.448 18.573c-7.836 5.65-15.607 11.385-23.376 17.126-4.751 3.51-9.508 7.01-14.264 10.514q-5.959 4.389-11.912 8.787a2613 2613 0 0 1-25.448 18.573c-7.836 5.65-15.607 11.385-23.376 17.126q-5.942 4.388-11.891 8.766l-4.75 3.5-9.5 7-2.375 1.75-4.748 3.498q-5.96 4.389-11.912 8.787a2613 2613 0 0 1-25.448 18.573c-7.836 5.65-15.607 11.385-23.376 17.126q-5.942 4.388-11.891 8.766l-4.75 3.5-11.879 8.753-4.713 3.473q-6.217 4.581-12.435 9.16l-2.618 1.928q-2.482 1.83-4.964 3.657l-2.262 1.666-1.982 1.46A984 984 0 0 0 6401 851c1.63 8.316 4.245 16.27 6.883 24.309q.737 2.262 1.473 4.526 1.565 4.804 3.136 9.607 2.476 7.574 4.94 15.15l.83 2.548 4.132 12.694a6820 6820 0 0 1 12.856 39.916c5.88 18.429 11.805 36.842 17.75 55.25a18717 18717 0 0 1 18 56 19300 19300 0 0 0 17.875 55.625l5.102 15.805.636 1.972q6.831 21.17 13.637 42.348l1.126 3.504a23087 23087 0 0 1 12.534 39.102l3.867 12.101c5.665 17.723 11.38 35.428 17.106 53.13 6.672 20.629 13.33 41.261 19.93 61.913l.978 3.058q1.335 4.173 2.666 8.348l.792 2.474c1.751 5.505 1.751 5.505 1.751 6.62h-887c10.324-33.266 10.324-33.266 14.129-44.95l1.309-4.035 2.727-8.4q3.639-11.206 7.269-22.416l.731-2.257a9691 9691 0 0 0 12.96-40.317A17639 17639 0 0 1 5739 1199a18710 18710 0 0 0 18-56c6.18-19.345 12.406-38.675 18.646-58.001a17623 17623 0 0 0 17.292-53.812 15929 15929 0 0 1 17.882-55.585c8.202-25.358 16.383-50.722 24.465-76.119q2.727-8.548 5.522-17.073c1.174-3.587 2.337-7.177 3.499-10.768q.81-2.487 1.634-4.969c.745-2.238 1.47-4.482 2.193-6.728l1.246-3.796c.621-3.149.621-3.149-.1-5.453-1.966-2.608-4.54-4.267-7.217-6.071q-1.913-1.328-3.824-2.66l-2.075-1.442c-3.853-2.713-7.628-5.53-11.413-8.336A1800 1800 0 0 0 5806 818.5c-8.584-6.18-17.102-12.448-25.609-18.734q-5.942-4.388-11.891-8.766l-4.75-3.5-2.375-1.75-9.5-7-4.748-3.498q-5.96-4.389-11.912-8.787c-7.71-5.695-15.437-11.364-23.215-16.965-8.584-6.181-17.102-12.448-25.609-18.734q-5.942-4.388-11.891-8.766l-4.75-3.5-2.375-1.75-9.5-7-4.748-3.498q-5.96-4.389-11.912-8.787c-7.71-5.695-15.437-11.364-23.215-16.965-8.584-6.181-17.102-12.448-25.609-18.734q-5.942-4.388-11.891-8.766-7.147-5.262-14.285-10.535c-7.71-5.695-15.437-11.364-23.215-16.965-8.584-6.181-17.102-12.448-25.609-18.734q-5.942-4.388-11.891-8.766l-4.75-3.5-2.375-1.75-9.5-7-4.748-3.498q-5.96-4.389-11.912-8.787c-7.71-5.695-15.437-11.364-23.215-16.965a2398 2398 0 0 1-25.857-18.914q-3-2.22-6.006-4.434-1.663-1.231-3.324-2.465l-2.856-2.113L5409 527v-1h547l3-11c.998-3.25 2.011-6.49 3.055-9.727l.889-2.777q1.463-4.561 2.931-9.121l2.107-6.568c6.263-19.511 12.57-39.008 18.876-58.505a16195 16195 0 0 0 18.158-56.475c5.842-18.288 11.73-36.56 17.63-54.829 5.79-17.928 11.56-35.863 17.292-53.81 6.37-19.946 12.8-39.873 19.244-59.795 5.989-18.518 11.96-37.041 17.88-55.58a19989 19989 0 0 1 19.706-61.3l3.154-9.767.631-1.955a14733 14733 0 0 0 10.915-33.95q2.99-9.321 5.973-18.642l2.13-6.64.969-3.037.898-2.798.773-2.414c.845-2.475 1.799-4.89 2.789-7.31" id="svg-layer-3" style="pointer-events: all;"/><path d="M0 0h716c-3.375 12.374-3.375 12.374-5.106 17.698l-1.18 3.64-1.257 3.853-1.334 4.113q-1.416 4.362-2.835 8.723c-2.258 6.938-4.508 13.88-6.758 20.82l-1.516 4.672a8830 8830 0 0 0-13.077 40.669A15520 15520 0 0 1 664.5 161.5 16064 16064 0 0 0 646 219a16086 16086 0 0 1-18.5 57.5 17275 17275 0 0 0-19.516 60.673 16858 16858 0 0 1-16.338 50.828 21153 21153 0 0 0-18.833 58.562l-.959 2.997-4.805 15.03-1 3.13q-1.094 3.42-2.187 6.842a45868 45868 0 0 1-7.145 22.332q-1.148 3.585-2.293 7.17-1.583 4.952-3.17 9.905l-.957 3-.877 2.732-.762 2.383C548 524 548 524 547 526H0zM7929 0h716v526h-547c-7.063-21.19-14.12-42.371-20.964-63.631l-3.335-10.346a21133 21133 0 0 1-18.677-58.2c-5.27-16.493-10.58-32.972-15.899-49.448l-5.11-15.828-.637-1.974q-6.765-20.97-13.503-41.948l-1.114-3.466-5.543-17.256q-5.044-15.699-10.091-31.397L7997.5 215l-24.75-77-1.125-3.5-21.786-67.783-4.612-14.356a9443 9443 0 0 0-11.03-34.165q-1.275-3.927-2.558-7.85l-1.084-3.338-.923-2.824C7929 2 7929 2 7929 0M8645 527v850h-273c-4.5-11.25-4.5-11.25-6.128-16.309-.37-1.14-.738-2.282-1.119-3.458l-1.175-3.67q-.63-1.958-1.263-3.916-1.687-5.234-3.366-10.47-1.774-5.52-3.552-11.038a25714 25714 0 0 1-18.367-57.297A16875 16875 0 0 0 8321 1221a19730 19730 0 0 1-18.959-59.002A18021 18021 0 0 0 8285 1109a18785 18785 0 0 1-18-56 19263 19263 0 0 0-19.154-59.588l-.64-1.98-3.19-9.885a27143.687 27143.687 0 0 1-9.656-29.969l-1.134-3.524q-2.772-8.62-5.535-17.243a5960 5960 0 0 0-10.545-32.618 8119 8119 0 0 1-4.48-13.755 2612 2612 0 0 0-3.08-9.411 2464 2464 0 0 1-3.379-10.355l-1.035-3.11-.919-2.856-.811-2.476c-.49-2.476-.316-3.88.558-6.23 1.452-1.489 1.452-1.489 3.324-2.883l2.095-1.582 2.269-1.66 2.338-1.748a789 789 0 0 1 15.533-11.255c4.92-3.482 9.78-7.042 14.629-10.622l2.43-1.794L8254 813c10.04-7.422 20.1-14.812 30.233-22.108 7.836-5.65 15.607-11.385 23.376-17.126q5.942-4.388 11.891-8.766l4.75-3.5 9.5-7 2.375-1.75 4.748-3.498q5.96-4.389 11.912-8.787a2613 2613 0 0 1 25.448-18.573c7.836-5.65 15.607-11.385 23.376-17.126 4.751-3.51 9.508-7.01 14.264-10.514q5.959-4.389 11.912-8.787c7.771-5.74 15.56-11.45 23.403-17.09A910 910 0 0 0 8468 656c6.3-4.754 12.673-9.398 19.08-14.006 7.89-5.68 15.71-11.45 23.529-17.228 4.751-3.51 9.508-7.01 14.264-10.514q5.959-4.389 11.912-8.787c7.771-5.74 15.56-11.45 23.403-17.09A910 910 0 0 0 8577 576c6.3-4.754 12.673-9.398 19.08-14.006 8.694-6.258 17.305-12.628 25.92-18.994l10.5-7.75 2.447-1.808 2.272-1.676 1.998-1.476c4.548-3.29 4.548-3.29 5.783-3.29M0 527c4.781 2.732 8.597 5.091 12.813 8.438 5.183 4.063 10.46 7.972 15.812 11.812 8.713 6.259 17.356 12.608 25.984 18.984Q60.55 570.622 66.5 575q7.147 5.262 14.285 10.535C88.495 591.23 96.222 596.9 104 602.5c8.584 6.181 17.102 12.448 25.609 18.734q5.942 4.388 11.891 8.766l7.125 5.25 9.5 7 4.748 3.498q5.96 4.389 11.912 8.787c7.71 5.695 15.437 11.364 23.215 16.965 8.584 6.181 17.102 12.448 25.609 18.734q5.942 4.388 11.891 8.766 7.147 5.262 14.285 10.535c7.71 5.695 15.437 11.364 23.215 16.965 8.584 6.181 17.102 12.448 25.609 18.734q5.942 4.388 11.891 8.766l7.125 5.25 9.5 7 4.748 3.498q5.96 4.389 11.912 8.787c7.71 5.695 15.437 11.364 23.215 16.965 8.584 6.181 17.102 12.448 25.609 18.734q4.759 3.513 9.52 7.02l4.724 3.48a7737 7737 0 0 0 14.797 10.885q2.385 1.752 4.77 3.5c5.265 3.87 10.44 7.846 15.58 11.881-1.63 8.316-4.245 16.27-6.883 24.309q-.737 2.262-1.473 4.526a7255 7255 0 0 1-3.136 9.607q-2.476 7.574-4.94 15.15l-.83 2.548-4.132 12.694a6820 6820 0 0 0-12.856 39.916A16497 16497 0 0 1 390 1015a18717 18717 0 0 0-18 56 19263 19263 0 0 1-19.154 59.588l-.64 1.98-3.19 9.885a33627.954 33627.954 0 0 0-15.256 47.394q-3.882 12.077-7.76 24.153l-8.875 27.625-1.112 3.46a29424 29424 0 0 1-14.392 44.679l-5.141 15.918c-4.303 13.317-8.593 26.637-12.82 39.978l-1.008 3.181q-2.31 7.29-4.604 14.582l-1.591 5.034-.72 2.304c-1.624 5.126-1.624 5.126-2.737 6.239H0zM7928.902 1053.245c2.367.852 4.004 1.943 6.012 3.458l2.278 1.702 2.433 1.845q2.575 1.928 5.152 3.852l2.64 1.977c3.891 2.894 7.83 5.72 11.77 8.546 6.32 4.544 12.568 9.172 18.781 13.86 5.649 4.252 11.373 8.393 17.112 12.521 7.89 5.68 15.71 11.45 23.529 17.228q5.942 4.387 11.891 8.766l4.75 3.5 2.375 1.75 14.248 10.498q5.96 4.389 11.912 8.787c7.71 5.695 15.437 11.364 23.215 16.965 8.584 6.181 17.102 12.448 25.609 18.734q5.942 4.387 11.891 8.766l4.75 3.5 2.375 1.75 14.248 10.498q5.96 4.389 11.912 8.787c7.771 5.74 15.56 11.45 23.403 17.09a1018 1018 0 0 1 18.78 13.86c5.649 4.252 11.373 8.393 17.112 12.521 7.89 5.68 15.71 11.45 23.529 17.228q5.942 4.387 11.891 8.766 7.147 5.262 14.285 10.535c7.71 5.695 15.437 11.364 23.215 16.965 8.584 6.181 17.102 12.448 25.609 18.734 4.748 3.507 9.502 7.006 14.255 10.507q6.035 4.445 12.062 8.9l7.259 5.362a792 792 0 0 0 16.805 12.066c1.353.953 2.685 1.939 4.01 2.931v1h-883c2.635-2.635 4.718-4.654 7.66-6.742l2.125-1.52 2.278-1.613 4.882-3.496 2.536-1.816c4.009-2.886 7.984-5.816 11.957-8.75l2.383-1.76 4.788-3.537c4.751-3.51 9.508-7.01 14.264-10.514q5.959-4.389 11.912-8.787a2613 2613 0 0 1 25.448-18.573c7.836-5.65 15.607-11.385 23.376-17.126 4.751-3.51 9.508-7.01 14.264-10.514q5.959-4.389 11.912-8.787c7.771-5.74 15.56-11.45 23.403-17.09A910 910 0 0 0 7667 1244c6.3-4.754 12.673-9.398 19.08-14.006 7.89-5.68 15.71-11.45 23.529-17.228q5.942-4.387 11.891-8.766l4.75-3.5 9.5-7 2.375-1.75 4.748-3.498q5.96-4.389 11.912-8.787a2613 2613 0 0 1 25.448-18.573c7.836-5.65 15.607-11.385 23.376-17.126 4.751-3.51 9.508-7.01 14.264-10.514q5.959-4.389 11.912-8.787c7.771-5.74 15.56-11.45 23.403-17.09A910 910 0 0 0 7870 1095c6.295-4.75 12.663-9.39 19.065-13.995a1892 1892 0 0 0 16.81-12.255l2.408-1.767c3.517-2.589 7.012-5.194 10.44-7.901l1.67-1.306a485 485 0 0 0 4.26-3.397c2.347-1.379 2.347-1.379 4.25-1.134M2519.987 1053.173c2.265.93 3.972 2.054 5.927 3.53l2.277 1.701 2.434 1.846q2.58 1.93 5.164 3.86l2.642 1.978c3.825 2.847 7.695 5.631 11.569 8.412 8.585 6.18 17.102 12.448 25.609 18.734q5.942 4.387 11.891 8.766l4.75 3.5 2.375 1.75 14.248 10.498q5.96 4.389 11.912 8.787c7.71 5.695 15.437 11.364 23.215 16.965 8.584 6.181 17.102 12.448 25.609 18.734q5.942 4.387 11.891 8.766l4.75 3.5 2.375 1.75 14.248 10.498q5.96 4.389 11.912 8.787c7.71 5.695 15.437 11.364 23.215 16.965 8.584 6.181 17.102 12.448 25.609 18.734q5.942 4.387 11.891 8.766l7.125 5.25 9.5 7 4.748 3.498q5.96 4.389 11.912 8.787c7.71 5.695 15.437 11.364 23.215 16.965 8.584 6.181 17.102 12.448 25.609 18.734q5.942 4.387 11.891 8.766l7.125 5.25 9.5 7 4.748 3.498q5.96 4.389 11.912 8.787a2561 2561 0 0 0 25.422 18.553c6.481 4.671 12.915 9.404 19.338 14.156l2.248 1.662 2.138 1.582a373 373 0 0 0 6.12 4.356L2961 1376v1h-883c2.635-2.635 4.718-4.654 7.66-6.742l2.125-1.52 2.278-1.613 4.882-3.496 2.536-1.816c4.009-2.886 7.984-5.816 11.956-8.75l2.384-1.76 4.788-3.537c4.751-3.51 9.508-7.01 14.264-10.514q5.959-4.389 11.912-8.787a2613 2613 0 0 1 25.448-18.573c7.836-5.65 15.607-11.385 23.376-17.126 4.751-3.51 9.508-7.01 14.264-10.514q5.959-4.389 11.912-8.787a2613 2613 0 0 1 25.448-18.573c7.836-5.65 15.607-11.385 23.376-17.126 4.751-3.51 9.508-7.01 14.264-10.514q5.959-4.389 11.912-8.787c7.771-5.74 15.56-11.45 23.403-17.09A910 910 0 0 0 2333 1189c6.3-4.754 12.673-9.398 19.08-14.006 7.89-5.68 15.71-11.45 23.529-17.228q5.942-4.387 11.891-8.766l4.75-3.5 9.5-7 2.375-1.75 4.748-3.498q5.96-4.389 11.912-8.787a2613 2613 0 0 1 25.448-18.573c7.836-5.65 15.607-11.385 23.376-17.126 3.96-2.926 7.926-5.845 11.891-8.766l4.707-3.469q4.965-3.658 9.93-7.312l2.562-1.887 4.809-3.539 2.222-1.637 2.15-1.57a139 139 0 0 0 4.306-3.36l2.115-1.695 1.868-1.545c1.831-.986 1.831-.986 3.818-.813M6126.005 1053.144c2.235.96 3.967 2.093 5.91 3.56l2.276 1.7 2.434 1.846q2.58 1.93 5.164 3.86l2.642 1.978c3.825 2.847 7.695 5.631 11.569 8.412 8.585 6.18 17.102 12.448 25.609 18.734q5.942 4.387 11.891 8.766l4.75 3.5 2.375 1.75 14.248 10.498q5.96 4.389 11.912 8.787c7.771 5.74 15.56 11.45 23.403 17.09a1018 1018 0 0 1 18.78 13.86c5.649 4.252 11.373 8.393 17.112 12.521 7.89 5.68 15.71 11.45 23.529 17.228q5.942 4.387 11.891 8.766l4.75 3.5 2.375 1.75 14.248 10.498q5.96 4.389 11.912 8.787c7.71 5.695 15.437 11.364 23.215 16.965 8.584 6.181 17.102 12.448 25.609 18.734q5.942 4.387 11.891 8.766l4.75 3.5 2.375 1.75 9.5 7 4.748 3.498q5.96 4.389 11.912 8.787c7.71 5.695 15.437 11.364 23.215 16.965 8.584 6.181 17.102 12.448 25.609 18.734q5.942 4.387 11.891 8.766l4.75 3.5 2.375 1.75 9.502 7.002 4.728 3.483q6.11 4.5 12.211 9.011l4.997 3.691 2.403 1.777c4.944 3.643 9.927 7.208 15.014 10.65L6567 1376v1h-883c2.635-2.635 4.718-4.654 7.66-6.742l2.125-1.52 2.278-1.613 4.882-3.496 2.536-1.816c4.009-2.886 7.984-5.816 11.957-8.75l2.383-1.76 4.788-3.537c4.751-3.51 9.508-7.01 14.264-10.514q5.959-4.389 11.912-8.787a2613 2613 0 0 1 25.448-18.573c7.836-5.65 15.607-11.385 23.376-17.126 4.751-3.51 9.508-7.01 14.264-10.514q5.959-4.389 11.912-8.787a2613 2613 0 0 1 25.448-18.573c7.836-5.65 15.607-11.385 23.376-17.126q5.942-4.387 11.891-8.766l4.75-3.5 9.5-7 2.375-1.75 4.748-3.498q5.96-4.389 11.912-8.787a2613 2613 0 0 1 25.448-18.573c7.836-5.65 15.607-11.385 23.376-17.126q5.942-4.387 11.891-8.766l4.75-3.5 9.5-7 2.375-1.75 4.748-3.498q5.96-4.389 11.912-8.787a2613 2613 0 0 1 25.448-18.573c7.836-5.65 15.607-11.385 23.376-17.126q5.942-4.387 11.891-8.766l4.75-3.5 11.879-8.753 4.713-3.473q6.217-4.582 12.435-9.16l2.618-1.928q2.482-1.83 4.964-3.657l2.262-1.666 1.982-1.46c1.897-1.403 1.897-1.403 3.89-3.144 2.007-1.259 2.007-1.259 4.012-1.115M4323.005 1053.144c2.235.96 3.967 2.093 5.91 3.56l2.277 1.7 2.433 1.846q2.575 1.928 5.152 3.852l2.64 1.977c3.891 2.894 7.83 5.72 11.77 8.546 6.32 4.544 12.568 9.172 18.781 13.86 5.649 4.252 11.373 8.393 17.112 12.521 7.89 5.68 15.71 11.45 23.529 17.228q5.942 4.387 11.891 8.766 7.147 5.262 14.285 10.535c7.771 5.74 15.56 11.45 23.403 17.09a1018 1018 0 0 1 18.78 13.86c5.649 4.252 11.373 8.393 17.112 12.521 7.89 5.68 15.71 11.45 23.529 17.228q5.942 4.387 11.891 8.766l4.75 3.5 2.375 1.75 9.5 7 4.748 3.498q5.96 4.389 11.912 8.787c7.71 5.695 15.437 11.364 23.215 16.965 8.584 6.181 17.102 12.448 25.609 18.734q5.942 4.387 11.891 8.766l4.75 3.5 2.375 1.75 9.5 7 4.748 3.498q5.96 4.389 11.912 8.787c7.71 5.695 15.437 11.364 23.215 16.965 8.584 6.181 17.102 12.448 25.609 18.734 4.748 3.507 9.502 7.006 14.255 10.507q6.035 4.445 12.062 8.9l7.259 5.362a792 792 0 0 0 16.805 12.066c1.353.953 2.685 1.939 4.01 2.931v1h-883c2.635-2.635 4.718-4.654 7.66-6.742l2.125-1.52 2.278-1.613 4.882-3.496 2.536-1.816c4.009-2.886 7.984-5.816 11.956-8.75l2.384-1.76 4.788-3.537c4.751-3.51 9.508-7.01 14.264-10.514q5.959-4.389 11.912-8.787a2613 2613 0 0 1 25.448-18.573c7.836-5.65 15.607-11.385 23.376-17.126 4.751-3.51 9.508-7.01 14.264-10.514q5.959-4.389 11.912-8.787a2613 2613 0 0 1 25.448-18.573c7.836-5.65 15.607-11.385 23.376-17.126q5.942-4.387 11.891-8.766l4.75-3.5 9.5-7 2.375-1.75 4.748-3.498q5.96-4.389 11.912-8.787a2613 2613 0 0 1 25.448-18.573c7.836-5.65 15.607-11.385 23.376-17.126q5.942-4.387 11.891-8.766l4.75-3.5 9.5-7 2.375-1.75 4.748-3.498q5.96-4.389 11.912-8.787a2613 2613 0 0 1 25.448-18.573c7.836-5.65 15.607-11.385 23.376-17.126q5.942-4.387 11.891-8.766l4.75-3.5 11.879-8.753 4.713-3.473q6.217-4.582 12.435-9.16l2.618-1.928q2.482-1.83 4.964-3.657l2.262-1.666 1.982-1.46c1.897-1.403 1.897-1.403 3.89-3.144 2.007-1.259 2.007-1.259 4.012-1.115M716.987 1053.173c2.265.93 3.972 2.054 5.927 3.53l2.277 1.701 2.434 1.846q2.58 1.93 5.164 3.86l2.642 1.978c3.825 2.847 7.695 5.631 11.569 8.412 8.585 6.18 17.102 12.448 25.609 18.734q5.942 4.387 11.891 8.766l4.75 3.5 2.375 1.75 14.248 10.498q5.96 4.389 11.912 8.787c7.71 5.695 15.437 11.364 23.215 16.965 8.584 6.181 17.102 12.448 25.609 18.734q5.942 4.387 11.891 8.766l4.75 3.5 2.375 1.75 14.248 10.498q5.96 4.389 11.912 8.787c7.71 5.695 15.437 11.364 23.215 16.965 8.584 6.181 17.102 12.448 25.609 18.734q5.942 4.387 11.891 8.766l4.75 3.5 2.375 1.75 9.5 7 4.748 3.498q5.96 4.389 11.912 8.787c7.71 5.695 15.437 11.364 23.215 16.965 8.584 6.181 17.102 12.448 25.609 18.734q5.942 4.387 11.891 8.766l7.125 5.25 9.5 7 4.748 3.498q5.96 4.389 11.912 8.787a2561 2561 0 0 0 25.422 18.553c6.481 4.671 12.915 9.404 19.338 14.156l2.248 1.662 2.138 1.582a373 373 0 0 0 6.12 4.356L1158 1376v1H275c3.304-3.304 6.269-5.725 10.063-8.375a934 934 0 0 0 17.125-12.375l2.43-1.794 4.926-3.642q5.975-4.411 11.956-8.814l4.75-3.5 9.5-7 2.375-1.75 4.748-3.498q5.96-4.389 11.912-8.787a2613 2613 0 0 1 25.448-18.573c7.836-5.65 15.607-11.385 23.376-17.126 4.751-3.51 9.508-7.01 14.264-10.514q5.959-4.389 11.912-8.787a2613 2613 0 0 1 25.448-18.573c7.836-5.65 15.607-11.385 23.376-17.126 4.751-3.51 9.508-7.01 14.264-10.514q5.959-4.389 11.912-8.787a2613 2613 0 0 1 25.448-18.573c7.836-5.65 15.607-11.385 23.376-17.126q5.942-4.387 11.891-8.766l4.75-3.5 28.5-21 2.375-1.75 4.748-3.498q5.96-4.389 11.912-8.787a2613 2613 0 0 1 25.448-18.573c7.836-5.65 15.607-11.385 23.376-17.126 3.96-2.926 7.926-5.845 11.891-8.766l4.707-3.469q4.965-3.658 9.93-7.312l2.562-1.887 4.809-3.539 2.222-1.637 2.15-1.57a139 139 0 0 0 4.306-3.36l2.115-1.695 1.868-1.545c1.831-.986 1.831-.986 3.818-.813" id="svg-layer-4" style="pointer-events: all;"/></svg>